<svg xmlns="http://www.w3.org/2000/svg" viewBox="0 0 1376 1032" width="1376" height="1032"><defs><linearGradient id="wp" x1="0" y1="0" x2="1" y2="1"><stop offset="0" stop-color="#121A2A"/><stop offset="1" stop-color="#05070B"/></linearGradient><radialGradient id="glow" cx="0.72" cy="0.2" r="0.6"><stop offset="0" stop-color="#4FD1FF" stop-opacity="0.32"/><stop offset="1" stop-color="#4FD1FF" stop-opacity="0"/></radialGradient><radialGradient id="glow2" cx="0.15" cy="0.95" r="0.5"><stop offset="0" stop-color="#2B5BFF" stop-opacity="0.22"/><stop offset="1" stop-color="#2B5BFF" stop-opacity="0"/></radialGradient><filter id="sh" x="-10%" y="-10%" width="120%" height="130%"><feDropShadow dx="0" dy="18" stdDeviation="22" flood-color="#000" flood-opacity="0.55"/></filter><filter id="soft" x="-20%" y="-20%" width="140%" height="140%"><feGaussianBlur stdDeviation="14"/></filter><linearGradient id="av" x1="0" y1="0" x2="1" y2="1"><stop offset="0" stop-color="#4FD1FF"/><stop offset="1" stop-color="#2B5BFF"/></linearGradient></defs><rect x="0" y="0" width="1376" height="1032" rx="0" fill="url(#wp)"/><rect x="0" y="0" width="1376" height="1032" rx="0" fill="url(#glow)"/><rect x="0" y="0" width="1376" height="1032" rx="0" fill="url(#glow2)"/><circle cx="688" cy="476" r="330" fill="#4FD1FF" fill-opacity="0.10" filter="url(#soft)"/><rect x="598" y="90" width="180" height="34" rx="10" fill="#E6E9EF" opacity="0.9"/><rect x="648" y="140" width="80" height="10" rx="5" fill="#8B93A2"/><clipPath id="avc"><circle cx="688" cy="476" r="72"/></clipPath><circle cx="688" cy="476" r="72" fill="url(#av)"/><g clip-path="url(#avc)" fill="#0B0D12" opacity="0.45"><circle cx="688" cy="454" r="26"/><ellipse cx="688" cy="540" rx="52" ry="44"/></g><rect x="628" y="568" width="120" height="12" rx="6" fill="#E6E9EF"/><rect x="538" y="608" width="300" height="44" rx="22" fill="#FFFFFF" opacity="0.14" stroke="#FFFFFF" stroke-opacity="0.2"/><circle cx="578" cy="630" r="4" fill="#E6E9EF"/><circle cx="594" cy="630" r="4" fill="#E6E9EF"/><circle cx="610" cy="630" r="4" fill="#E6E9EF"/><circle cx="626" cy="630" r="4" fill="#E6E9EF"/><circle cx="642" cy="630" r="4" fill="#E6E9EF"/><circle cx="658" cy="630" r="4" fill="#E6E9EF"/><circle cx="808" cy="630" r="14" fill="#FFFFFF" opacity="0.25"/><circle cx="608" cy="942" r="18" fill="#FFFFFF" opacity="0.12"/><rect x="588" y="974" width="40" height="7" rx="3" fill="#8B93A2"/><circle cx="688" cy="942" r="18" fill="#FFFFFF" opacity="0.12"/><rect x="668" y="974" width="40" height="7" rx="3" fill="#8B93A2"/><circle cx="768" cy="942" r="18" fill="#FFFFFF" opacity="0.12"/><rect x="748" y="974" width="40" height="7" rx="3" fill="#8B93A2"/></svg>
