<svg xmlns="http://www.w3.org/2000/svg" viewBox="0 0 1376 1032" width="1376" height="1032"><defs><linearGradient id="wp" x1="0" y1="0" x2="1" y2="1"><stop offset="0" stop-color="#121A2A"/><stop offset="1" stop-color="#05070B"/></linearGradient><radialGradient id="glow" cx="0.72" cy="0.2" r="0.6"><stop offset="0" stop-color="#4FD1FF" stop-opacity="0.32"/><stop offset="1" stop-color="#4FD1FF" stop-opacity="0"/></radialGradient><radialGradient id="glow2" cx="0.15" cy="0.95" r="0.5"><stop offset="0" stop-color="#2B5BFF" stop-opacity="0.22"/><stop offset="1" stop-color="#2B5BFF" stop-opacity="0"/></radialGradient><filter id="sh" x="-10%" y="-10%" width="120%" height="130%"><feDropShadow dx="0" dy="18" stdDeviation="22" flood-color="#000" flood-opacity="0.55"/></filter><filter id="soft" x="-20%" y="-20%" width="140%" height="140%"><feGaussianBlur stdDeviation="14"/></filter><linearGradient id="av" x1="0" y1="0" x2="1" y2="1"><stop offset="0" stop-color="#4FD1FF"/><stop offset="1" stop-color="#2B5BFF"/></linearGradient></defs><rect x="0" y="0" width="1376" height="1032" rx="0" fill="url(#wp)"/><rect x="0" y="0" width="1376" height="1032" rx="0" fill="url(#glow)"/><rect x="0" y="0" width="1376" height="1032" rx="0" fill="url(#glow2)"/><g filter="url(#sh)"><rect x="40" y="60" width="640" height="860" rx="12" fill="#14171F"/></g><rect x="40" y="60" width="640" height="40" rx="12" fill="#1F232C"/><rect x="40" y="88" width="640" height="12" rx="0" fill="#1F232C"/><rect x="40" y="60" width="640" height="860" rx="12" fill="none" stroke="#FFFFFF" stroke-opacity="0.08"/><circle cx="60" cy="80" r="6" fill="#FF5F57"/><circle cx="80" cy="80" r="6" fill="#FEBC2E"/><circle cx="100" cy="80" r="6" fill="#28C840"/><rect x="300" y="76" width="120" height="8" rx="4" fill="#5A6170"/><rect x="40" y="100" width="640" height="820" rx="0" fill="#0B0D12"/><rect x="40" y="908" width="640" height="12" rx="12" fill="#0B0D12"/><rect x="62" y="122" width="10" height="8" rx="3" fill="#7EE787"/><rect x="80" y="122" width="123" height="8" rx="4" fill="#C9CED8"/><rect x="62" y="144" width="320" height="8" rx="4" fill="#5A6170"/><rect x="62" y="166" width="137" height="8" rx="4" fill="#5A6170"/><rect x="62" y="188" width="471" height="8" rx="4" fill="#5A6170"/><rect x="62" y="210" width="281" height="8" rx="4" fill="#5A6170"/><rect x="62" y="232" width="10" height="8" rx="3" fill="#7EE787"/><rect x="80" y="232" width="156" height="8" rx="4" fill="#C9CED8"/><rect x="62" y="254" width="430" height="8" rx="4" fill="#5A6170"/><rect x="62" y="276" width="102" height="8" rx="4" fill="#5A6170"/><rect x="62" y="298" width="151" height="8" rx="4" fill="#5A6170"/><rect x="62" y="320" width="137" height="8" rx="4" fill="#5A6170"/><rect x="62" y="342" width="10" height="8" rx="3" fill="#7EE787"/><rect x="80" y="342" width="257" height="8" rx="4" fill="#C9CED8"/><rect x="62" y="364" width="198" height="8" rx="4" fill="#5A6170"/><rect x="62" y="386" width="444" height="8" rx="4" fill="#5A6170"/><rect x="62" y="408" width="467" height="8" rx="4" fill="#5A6170"/><rect x="62" y="430" width="151" height="8" rx="4" fill="#5A6170"/><rect x="62" y="452" width="10" height="8" rx="3" fill="#7EE787"/><rect x="80" y="452" width="157" height="8" rx="4" fill="#C9CED8"/><rect x="62" y="474" width="459" height="8" rx="4" fill="#5A6170"/><rect x="62" y="496" width="96" height="8" rx="4" fill="#5A6170"/><rect x="62" y="518" width="419" height="8" rx="4" fill="#5A6170"/><rect x="62" y="540" width="111" height="8" rx="4" fill="#5A6170"/><rect x="62" y="562" width="10" height="8" rx="3" fill="#7EE787"/><rect x="80" y="562" width="154" height="8" rx="4" fill="#C9CED8"/><rect x="62" y="584" width="198" height="8" rx="4" fill="#5A6170"/><rect x="62" y="606" width="354" height="8" rx="4" fill="#5A6170"/><rect x="62" y="628" width="454" height="8" rx="4" fill="#5A6170"/><rect x="62" y="650" width="309" height="8" rx="4" fill="#5A6170"/><rect x="62" y="672" width="10" height="8" rx="3" fill="#7EE787"/><rect x="80" y="672" width="254" height="8" rx="4" fill="#C9CED8"/><rect x="62" y="694" width="291" height="8" rx="4" fill="#5A6170"/><rect x="62" y="716" width="184" height="8" rx="4" fill="#5A6170"/><rect x="62" y="738" width="383" height="8" rx="4" fill="#5A6170"/><rect x="62" y="760" width="127" height="8" rx="4" fill="#5A6170"/><rect x="62" y="782" width="10" height="8" rx="3" fill="#7EE787"/><rect x="80" y="782" width="150" height="8" rx="4" fill="#C9CED8"/><rect x="62" y="804" width="90" height="8" rx="4" fill="#5A6170"/><rect x="62" y="826" width="474" height="8" rx="4" fill="#5A6170"/><rect x="62" y="848" width="534" height="8" rx="4" fill="#5A6170"/><rect x="62" y="870" width="286" height="8" rx="4" fill="#5A6170"/><rect x="62" y="892" width="10" height="14" rx="2" fill="#4FD1FF"/><g filter="url(#sh)"><rect x="720" y="60" width="616" height="500" rx="12" fill="#14171F"/></g><rect x="720" y="60" width="616" height="40" rx="12" fill="#1F232C"/><rect x="720" y="88" width="616" height="12" rx="0" fill="#1F232C"/><rect x="720" y="60" width="616" height="500" rx="12" fill="none" stroke="#FFFFFF" stroke-opacity="0.08"/><circle cx="740" cy="80" r="6" fill="#FF5F57"/><circle cx="760" cy="80" r="6" fill="#FEBC2E"/><circle cx="780" cy="80" r="6" fill="#28C840"/><rect x="968" y="76" width="120" height="8" rx="4" fill="#5A6170"/><rect x="720" y="100" width="616" height="460" rx="0" fill="#14171F"/><rect x="744" y="124" width="346" height="46" rx="14" fill="#2A2F3A"/><rect x="760" y="138" width="242" height="8" rx="4" fill="#C9CED8"/><rect x="760" y="152" width="156" height="8" rx="4" fill="#8B93A2"/><rect x="1070" y="186" width="242" height="46" rx="14" fill="#1B3A4A"/><rect x="1086" y="200" width="169" height="8" rx="4" fill="#C9CED8"/><rect x="1086" y="214" width="109" height="8" rx="4" fill="#8B93A2"/><rect x="744" y="248" width="259" height="130" rx="14" fill="#2A2F3A"/><rect x="758" y="262" width="231" height="70" rx="6" fill="#0B0D12" stroke="#4FD1FF" stroke-opacity="0.6"/><rect x="770" y="274" width="104" height="6" rx="3" fill="#4FD1FF" opacity="0.7"/><rect x="770" y="288" width="166" height="6" rx="3" fill="#5A6170"/><rect x="770" y="302" width="124" height="6" rx="3" fill="#5A6170"/><rect x="758" y="346" width="155" height="8" rx="4" fill="#C9CED8"/><rect x="1042" y="394" width="270" height="46" rx="14" fill="#1B3A4A"/><rect x="1058" y="408" width="189" height="8" rx="4" fill="#C9CED8"/><rect x="1058" y="422" width="122" height="8" rx="4" fill="#8B93A2"/><rect x="744" y="456" width="322" height="46" rx="14" fill="#2A2F3A"/><rect x="760" y="470" width="225" height="8" rx="4" fill="#C9CED8"/><rect x="760" y="484" width="145" height="8" rx="4" fill="#8B93A2"/><rect x="744" y="500" width="568" height="40" rx="20" fill="#1F232C" stroke="#FFFFFF" stroke-opacity="0.08"/><rect x="764" y="516" width="120" height="8" rx="4" fill="#5A6170"/><g filter="url(#sh)"><rect x="720" y="600" width="616" height="320" rx="12" fill="#14171F"/></g><rect x="720" y="600" width="616" height="40" rx="12" fill="#1F232C"/><rect x="720" y="628" width="616" height="12" rx="0" fill="#1F232C"/><rect x="720" y="600" width="616" height="320" rx="12" fill="none" stroke="#FFFFFF" stroke-opacity="0.08"/><circle cx="740" cy="620" r="6" fill="#FF5F57"/><circle cx="760" cy="620" r="6" fill="#FEBC2E"/><circle cx="780" cy="620" r="6" fill="#28C840"/><rect x="968" y="616" width="120" height="8" rx="4" fill="#5A6170"/><rect x="720" y="640" width="616" height="280" rx="0" fill="#0B0D12"/><rect x="720" y="908" width="616" height="12" rx="12" fill="#0B0D12"/><rect x="742" y="662" width="10" height="8" rx="3" fill="#7EE787"/><rect x="760" y="662" width="260" height="8" rx="4" fill="#C9CED8"/><rect x="742" y="684" width="251" height="8" rx="4" fill="#5A6170"/><rect x="742" y="706" width="464" height="8" rx="4" fill="#5A6170"/><rect x="742" y="728" width="147" height="8" rx="4" fill="#5A6170"/><rect x="742" y="750" width="462" height="8" rx="4" fill="#5A6170"/><rect x="742" y="772" width="10" height="8" rx="3" fill="#7EE787"/><rect x="760" y="772" width="207" height="8" rx="4" fill="#C9CED8"/><rect x="742" y="794" width="522" height="8" rx="4" fill="#5A6170"/><rect x="742" y="816" width="158" height="8" rx="4" fill="#5A6170"/><rect x="742" y="838" width="226" height="8" rx="4" fill="#5A6170"/><rect x="742" y="860" width="301" height="8" rx="4" fill="#5A6170"/><rect x="742" y="882" width="10" height="14" rx="2" fill="#4FD1FF"/><rect x="335" y="934" width="706" height="80" rx="22" fill="#1E222B" opacity="0.85" stroke="#FFFFFF" stroke-opacity="0.1"/><rect x="365" y="948" width="52" height="52" rx="13" fill="#2E9BFF"/><rect x="377" y="960" width="28" height="28" rx="7" fill="#0B0D12" opacity="0.35"/><rect x="431" y="948" width="52" height="52" rx="13" fill="#8B93A2"/><rect x="443" y="960" width="28" height="28" rx="7" fill="#0B0D12" opacity="0.35"/><rect x="497" y="948" width="52" height="52" rx="13" fill="#7EE787"/><rect x="509" y="960" width="28" height="28" rx="7" fill="#0B0D12" opacity="0.35"/><rect x="563" y="948" width="52" height="52" rx="13" fill="#FF7A59"/><rect x="575" y="960" width="28" height="28" rx="7" fill="#0B0D12" opacity="0.35"/><rect x="629" y="948" width="52" height="52" rx="13" fill="#C792EA"/><rect x="641" y="960" width="28" height="28" rx="7" fill="#0B0D12" opacity="0.35"/><rect x="695" y="948" width="52" height="52" rx="13" fill="#4FD1FF"/><rect x="707" y="960" width="28" height="28" rx="7" fill="#0B0D12" opacity="0.35"/><rect x="761" y="948" width="52" height="52" rx="13" fill="#E3B341"/><rect x="773" y="960" width="28" height="28" rx="7" fill="#0B0D12" opacity="0.35"/><rect x="827" y="948" width="52" height="52" rx="13" fill="#4B5260"/><rect x="839" y="960" width="28" height="28" rx="7" fill="#0B0D12" opacity="0.35"/><rect x="893" y="948" width="52" height="52" rx="13" fill="#FF5F57"/><rect x="905" y="960" width="28" height="28" rx="7" fill="#0B0D12" opacity="0.35"/><rect x="959" y="948" width="52" height="52" rx="13" fill="#5A6170"/><rect x="971" y="960" width="28" height="28" rx="7" fill="#0B0D12" opacity="0.35"/><rect x="0" y="0" width="1376" height="28" rx="0" fill="#161A22" opacity="0.92"/><rect x="20" y="11" width="14" height="7" rx="3" fill="#C9CED8"/><rect x="52" y="11" width="54" height="7" rx="3" fill="#E6E9EF"/><rect x="128" y="11" width="34" height="7" rx="3" fill="#8B93A2"/><rect x="184" y="11" width="40" height="7" rx="3" fill="#8B93A2"/><rect x="246" y="11" width="30" height="7" rx="3" fill="#8B93A2"/><rect x="298" y="11" width="46" height="7" rx="3" fill="#8B93A2"/><rect x="366" y="11" width="38" height="7" rx="3" fill="#8B93A2"/><rect x="1306" y="10" width="46" height="8" rx="3" fill="#8B93A2"/><rect x="1278" y="10" width="12" height="8" rx="3" fill="#8B93A2"/><rect x="1250" y="10" width="12" height="8" rx="3" fill="#8B93A2"/><rect x="1218" y="10" width="16" height="8" rx="3" fill="#8B93A2"/><rect x="1190" y="10" width="12" height="8" rx="3" fill="#8B93A2"/><rect x="90" y="300" width="500" height="260" fill="#4FD1FF" fill-opacity="0.10" stroke="#4FD1FF" stroke-width="2" stroke-dasharray="8 6"/><rect x="85" y="295" width="10" height="10" rx="2" fill="#fff" stroke="#4FD1FF" stroke-width="2"/><rect x="585" y="295" width="10" height="10" rx="2" fill="#fff" stroke="#4FD1FF" stroke-width="2"/><rect x="85" y="555" width="10" height="10" rx="2" fill="#fff" stroke="#4FD1FF" stroke-width="2"/><rect x="585" y="555" width="10" height="10" rx="2" fill="#fff" stroke="#4FD1FF" stroke-width="2"/><rect x="600" y="566" width="160" height="30" rx="15" fill="#1E222B" stroke="#FFFFFF" stroke-opacity="0.12"/><text x="614" y="586" font-family="-apple-system, 'SF Pro Text', Inter, system-ui, sans-serif" font-size="13" fill="#E6E9EF">1000 × 520 · Copied</text></svg>
