<svg xmlns="http://www.w3.org/2000/svg" viewBox="0 0 1376 1032" width="1376" height="1032"><defs><linearGradient id="wp" x1="0" y1="0" x2="1" y2="1"><stop offset="0" stop-color="#121A2A"/><stop offset="1" stop-color="#05070B"/></linearGradient><radialGradient id="glow" cx="0.72" cy="0.2" r="0.6"><stop offset="0" stop-color="#4FD1FF" stop-opacity="0.32"/><stop offset="1" stop-color="#4FD1FF" stop-opacity="0"/></radialGradient><radialGradient id="glow2" cx="0.15" cy="0.95" r="0.5"><stop offset="0" stop-color="#2B5BFF" stop-opacity="0.22"/><stop offset="1" stop-color="#2B5BFF" stop-opacity="0"/></radialGradient><filter id="sh" x="-10%" y="-10%" width="120%" height="130%"><feDropShadow dx="0" dy="18" stdDeviation="22" flood-color="#000" flood-opacity="0.55"/></filter><filter id="soft" x="-20%" y="-20%" width="140%" height="140%"><feGaussianBlur stdDeviation="14"/></filter><linearGradient id="av" x1="0" y1="0" x2="1" y2="1"><stop offset="0" stop-color="#4FD1FF"/><stop offset="1" stop-color="#2B5BFF"/></linearGradient></defs><rect x="0" y="0" width="1376" height="1032" rx="0" fill="url(#wp)"/><rect x="0" y="0" width="1376" height="1032" rx="0" fill="url(#glow)"/><rect x="0" y="0" width="1376" height="1032" rx="0" fill="url(#glow2)"/><g filter="url(#sh)"><rect x="80" y="90" width="1216" height="800" rx="12" fill="#14171F"/></g><rect x="80" y="90" width="1216" height="40" rx="12" fill="#1F232C"/><rect x="80" y="118" width="1216" height="12" rx="0" fill="#1F232C"/><rect x="80" y="90" width="1216" height="800" rx="12" fill="none" stroke="#FFFFFF" stroke-opacity="0.08"/><circle cx="100" cy="110" r="6" fill="#FF5F57"/><circle cx="120" cy="110" r="6" fill="#FEBC2E"/><circle cx="140" cy="110" r="6" fill="#28C840"/><rect x="628" y="106" width="120" height="8" rx="4" fill="#5A6170"/><rect x="80" y="130" width="220" height="760" rx="0" fill="#111419"/><rect x="1056" y="130" width="240" height="760" rx="0" fill="#111419"/><rect x="104" y="154" width="40" height="8" rx="4" fill="#3C4350"/><rect x="104" y="182" width="93" height="8" rx="4" fill="#3C4350"/><rect x="104" y="210" width="146" height="8" rx="4" fill="#3C4350"/><rect x="104" y="238" width="79" height="8" rx="4" fill="#3C4350"/><rect x="104" y="266" width="132" height="8" rx="4" fill="#3C4350"/><rect x="104" y="294" width="65" height="8" rx="4" fill="#3C4350"/><rect x="104" y="322" width="118" height="8" rx="4" fill="#3C4350"/><rect x="104" y="350" width="51" height="8" rx="4" fill="#3C4350"/><rect x="104" y="378" width="104" height="8" rx="4" fill="#3C4350"/><rect x="104" y="406" width="157" height="8" rx="4" fill="#3C4350"/><rect x="104" y="434" width="90" height="8" rx="4" fill="#3C4350"/><rect x="104" y="462" width="143" height="8" rx="4" fill="#3C4350"/><rect x="104" y="490" width="76" height="8" rx="4" fill="#3C4350"/><rect x="104" y="518" width="129" height="8" rx="4" fill="#3C4350"/><rect x="1080" y="154" width="90" height="8" rx="4" fill="#3C4350"/><rect x="1186" y="154" width="70" height="8" rx="4" fill="#2A2F3A"/><rect x="1080" y="194" width="90" height="8" rx="4" fill="#3C4350"/><rect x="1186" y="194" width="70" height="8" rx="4" fill="#2A2F3A"/><rect x="1080" y="234" width="90" height="8" rx="4" fill="#3C4350"/><rect x="1186" y="234" width="70" height="8" rx="4" fill="#2A2F3A"/><rect x="1080" y="274" width="90" height="8" rx="4" fill="#3C4350"/><rect x="1186" y="274" width="70" height="8" rx="4" fill="#2A2F3A"/><rect x="1080" y="314" width="90" height="8" rx="4" fill="#3C4350"/><rect x="1186" y="314" width="70" height="8" rx="4" fill="#2A2F3A"/><rect x="1080" y="354" width="90" height="8" rx="4" fill="#3C4350"/><rect x="1186" y="354" width="70" height="8" rx="4" fill="#2A2F3A"/><rect x="1080" y="394" width="90" height="8" rx="4" fill="#3C4350"/><rect x="1186" y="394" width="70" height="8" rx="4" fill="#2A2F3A"/><rect x="1080" y="434" width="90" height="8" rx="4" fill="#3C4350"/><rect x="1186" y="434" width="70" height="8" rx="4" fill="#2A2F3A"/><rect x="1080" y="474" width="90" height="8" rx="4" fill="#3C4350"/><rect x="1186" y="474" width="70" height="8" rx="4" fill="#2A2F3A"/><rect x="1080" y="514" width="90" height="8" rx="4" fill="#3C4350"/><rect x="1186" y="514" width="70" height="8" rx="4" fill="#2A2F3A"/><rect x="300" y="130" width="756" height="760" rx="0" fill="#1B1F27"/><rect x="360" y="190" width="300" height="220" rx="8" fill="#F2F4F8"/><rect x="380" y="210" width="150" height="10" rx="5" fill="#0B0D12"/><rect x="380" y="234" width="210" height="8" rx="4" fill="#9AA4B2"/><rect x="360" y="190" width="300" height="220" fill="none" stroke="#4FD1FF" stroke-width="2"/><rect x="355" y="185" width="10" height="10" rx="2" fill="#fff" stroke="#4FD1FF" stroke-width="2"/><rect x="655" y="185" width="10" height="10" rx="2" fill="#fff" stroke="#4FD1FF" stroke-width="2"/><rect x="355" y="405" width="10" height="10" rx="2" fill="#fff" stroke="#4FD1FF" stroke-width="2"/><rect x="655" y="405" width="10" height="10" rx="2" fill="#fff" stroke="#4FD1FF" stroke-width="2"/><rect x="720" y="190" width="260" height="380" rx="8" fill="#2A2F3A"/><rect x="740" y="210" width="130" height="10" rx="5" fill="#4B5260"/><rect x="740" y="234" width="182" height="8" rx="4" fill="#3C4350"/><rect x="360" y="450" width="300" height="200" rx="8" fill="#2A2F3A"/><rect x="380" y="470" width="150" height="10" rx="5" fill="#4B5260"/><rect x="380" y="494" width="210" height="8" rx="4" fill="#3C4350"/><rect x="720" y="610" width="260" height="120" rx="8" fill="#2A2F3A"/><rect x="740" y="630" width="130" height="10" rx="5" fill="#4B5260"/><rect x="740" y="654" width="182" height="8" rx="4" fill="#3C4350"/><rect x="335" y="934" width="706" height="80" rx="22" fill="#1E222B" opacity="0.85" stroke="#FFFFFF" stroke-opacity="0.1"/><rect x="365" y="948" width="52" height="52" rx="13" fill="#2E9BFF"/><rect x="377" y="960" width="28" height="28" rx="7" fill="#0B0D12" opacity="0.35"/><rect x="431" y="948" width="52" height="52" rx="13" fill="#8B93A2"/><rect x="443" y="960" width="28" height="28" rx="7" fill="#0B0D12" opacity="0.35"/><rect x="497" y="948" width="52" height="52" rx="13" fill="#7EE787"/><rect x="509" y="960" width="28" height="28" rx="7" fill="#0B0D12" opacity="0.35"/><rect x="563" y="948" width="52" height="52" rx="13" fill="#FF7A59"/><rect x="575" y="960" width="28" height="28" rx="7" fill="#0B0D12" opacity="0.35"/><rect x="629" y="948" width="52" height="52" rx="13" fill="#C792EA"/><rect x="641" y="960" width="28" height="28" rx="7" fill="#0B0D12" opacity="0.35"/><rect x="695" y="948" width="52" height="52" rx="13" fill="#4FD1FF"/><rect x="707" y="960" width="28" height="28" rx="7" fill="#0B0D12" opacity="0.35"/><rect x="761" y="948" width="52" height="52" rx="13" fill="#E3B341"/><rect x="773" y="960" width="28" height="28" rx="7" fill="#0B0D12" opacity="0.35"/><rect x="827" y="948" width="52" height="52" rx="13" fill="#4B5260"/><rect x="839" y="960" width="28" height="28" rx="7" fill="#0B0D12" opacity="0.35"/><rect x="893" y="948" width="52" height="52" rx="13" fill="#FF5F57"/><rect x="905" y="960" width="28" height="28" rx="7" fill="#0B0D12" opacity="0.35"/><rect x="959" y="948" width="52" height="52" rx="13" fill="#5A6170"/><rect x="971" y="960" width="28" height="28" rx="7" fill="#0B0D12" opacity="0.35"/><rect x="0" y="0" width="1376" height="28" rx="0" fill="#161A22" opacity="0.92"/><rect x="20" y="11" width="14" height="7" rx="3" fill="#C9CED8"/><rect x="52" y="11" width="54" height="7" rx="3" fill="#E6E9EF"/><rect x="128" y="11" width="34" height="7" rx="3" fill="#8B93A2"/><rect x="184" y="11" width="40" height="7" rx="3" fill="#8B93A2"/><rect x="246" y="11" width="30" height="7" rx="3" fill="#8B93A2"/><rect x="298" y="11" width="46" height="7" rx="3" fill="#8B93A2"/><rect x="366" y="11" width="38" height="7" rx="3" fill="#8B93A2"/><rect x="1306" y="10" width="46" height="8" rx="3" fill="#8B93A2"/><rect x="1278" y="10" width="12" height="8" rx="3" fill="#8B93A2"/><rect x="1250" y="10" width="12" height="8" rx="3" fill="#8B93A2"/><rect x="1218" y="10" width="16" height="8" rx="3" fill="#8B93A2"/><rect x="1190" y="10" width="12" height="8" rx="3" fill="#8B93A2"/><g fill="none" stroke="#FF3B30" stroke-width="7" stroke-linecap="round" stroke-linejoin="round"><path d="M866 168c112 6 168 62 164 190-4 128-2 176-18 208-16 32-118 44-186 34-68-10-96-40-100-140-4-100-2-192 16-236 18-44 62-58 124-56z"/><path d="M566 700c46-58 92-136 150-206"/><path d="M700 470c22 10 38 16 46 16-14 10-26 24-34 40"/><path d="M380 258c72-14 138-10 176 6"/></g><text x="360" y="762" font-family="-apple-system, 'SF Pro Text', Inter, system-ui, sans-serif" font-size="32" font-style="italic" fill="#FF3B30">ship this one</text><rect x="376" y="40" width="624" height="52" rx="26" fill="#000000" opacity="0.85"/><rect x="376" y="40" width="624" height="52" rx="26" fill="none" stroke="#FFFFFF" stroke-opacity="0.12"/><path d="M404 78l6-18 14 4-14 14z" fill="#E6E9EF"/><rect x="404" y="54" width="14" height="6" rx="3" fill="#E6E9EF"/><text x="432" y="72" font-family="-apple-system, 'SF Pro Text', Inter, system-ui, sans-serif" font-size="18" fill="#E6E9EF" opacity="0.9">Screen paused for markup</text><rect x="668" y="52" width="40" height="28" rx="14" fill="#FFFFFF" opacity="0.12"/><path d="M682 66h14M682 66l5-5M682 66l5 5" stroke="#E6E9EF" stroke-width="2" stroke-linecap="round" fill="none" opacity="0.8"/><rect x="718" y="50" width="182" height="32" rx="16" fill="#4080FF"/><text x="742" y="72" font-family="-apple-system, 'SF Pro Text', Inter, system-ui, sans-serif" font-size="17" font-weight="600" fill="#FFFFFF">Copy Screenshot</text><rect x="910" y="52" width="74" height="28" rx="14" fill="#FFFFFF" opacity="0.12"/><text x="924" y="71" font-family="-apple-system, 'SF Pro Text', Inter, system-ui, sans-serif" font-size="15" fill="#E6E9EF" opacity="0.75">Discard</text><g transform="rotate(38 1150 300)"><rect x="1134" y="150" width="32" height="300" rx="16" fill="#E6E9EF"/><rect x="1134" y="150" width="32" height="300" rx="16" fill="none" stroke="#0B0D12" stroke-opacity="0.15"/><rect x="1134" y="300" width="32" height="10" rx="0" fill="#C9CED8" opacity="0.7"/><path d="M1134 450h32l-16 34z" fill="#B9BFCA"/><path d="M1142 470h16l-8 18z" fill="#3A3F49"/></g></svg>
